Race #8 for the cup aired 4/17/2011

General
Complete name                    : NASCAR 2011 Talladega #8 HDTV_JHW.mp4
Format                           : MPEG-4
Format profile                   : Base Media / Version 2
Codec ID                         : mp42
File size                        : 1.27 GiB
Duration                         : 2h 42mn
Overall bit rate                 : 1 115 Kbps
Encoded date                     : UTC 2011-04-17 11:42:02
Tagged date                      : UTC 2011-04-17 11:42:02
Writing library                  : AVS 

Video
ID                               : 1
Format                           : AVC
Format/Info                      : Advanced Video Codec
Format profile                   : Main@L5.1
Format settings, CABAC           : Yes
Format settings, ReFrames        : 2 frames
Codec ID                         : avc1
Codec ID/Info                    : Advanced Video Coding
Duration                         : 2h 42mn
Bit rate mode                    : Variable
Bit rate                         : 1 002 Kbps
Width                            : 720 pixels
Height                           : 400 pixels
Display aspect ratio             : 16:9
Frame rate mode                  : Constant
Frame rate                       : 29.970 fps
Color space                      : YUV
Chroma subsampling               : 4:2:0
Bit depth                        : 8 bits
Scan type                        : Progressive
Bits/(Pixel*Frame)               : 0.116
Stream size                      : 1.14 GiB (90%)
Language                         : English
Encoded date                     : UTC 2011-04-17 11:42:02
Tagged date                      : UTC 2011-04-17 11:42:02

Audio
ID                               : 2
Format                           : AAC
Format/Info                      : Advanced Audio Codec
Format profile                   : LC
Codec ID                         : 40
Duration                         : 2h 42mn
Bit rate mode                    : Constant
Bit rate                         : 104 Kbps
Nominal bit rate                 : 96.0 Kbps
Channel(s)                       : 2 channels
Channel positions                : Front: L R
Sampling rate                    : 48.0 KHz
Compression mode                 : Lossy
Stream size                      : 121 MiB (9%)
Language                         : English
Encoded date                     : UTC 2011-04-17 11:42:02
Tagged date                      : UTC 2011-04-17 11:42:02

[img]http://img855.imageshack.us/img855/7972/vlcsnap2011041811h34m56.png[/img]
[img]http://img801.imageshack.us/img801/5572/vlcsnap2011041811h35m02.png[/img]
[img]http://img850.imageshack.us/img850/7389/vlcsnap2011041811h35m32.png[/img]